{
	"asset":{
		"generator":"Khronos glTF Blender I/O v4.2.70",
		"version":"2.0"
	},
	"extensionsUsed":[
		"KHR_lights_punctual"
	],
	"extensionsRequired":[
		"KHR_lights_punctual"
	],
	"extensions":{
		"KHR_lights_punctual":{
			"lights":[
				{
					"color":[
						1,
						1,
						1
					],
					"intensity":54351.41306588226,
					"type":"point",
					"name":"Light"
				}
			]
		}
	},
	"scene":0,
	"scenes":[
		{
			"name":"Scene",
			"nodes":[
				0,
				1,
				2,
				31
			]
		}
	],
	"nodes":[
		{
			"extensions":{
				"KHR_lights_punctual":{
					"light":0
				}
			},
			"name":"Light",
			"rotation":[
				-0.28416627645492554,
				0.7269423007965088,
				0.34203392267227173,
				0.5232754945755005
			],
			"translation":[
				4.076245307922363,
				5.903861999511719,
				-1.0054539442062378
			]
		},
		{
			"camera":0,
			"name":"Camera",
			"rotation":[
				-0.20997299253940582,
				0.3857799470424652,
				0.09062844514846802,
				0.8937962055206299
			],
			"translation":[
				7.358891487121582,
				4.958309173583984,
				6.925790786743164
			]
		},
		{
			"name":"Empty",
			"rotation":[
				0.70710688829422,
				0,
				0,
				0.7071066498756409
			],
			"translation":[
				-5.436473846435547,
				1.2910832166671753,
				0
			]
		},
		{
			"name":"spine.004",
			"rotation":[
				0.07015032321214676,
				1.1891562934351896e-07,
				8.362570191877694e-09,
				0.9975364804267883
			],
			"scale":[
				1,
				1.0000001192092896,
				0.9999999403953552
			],
			"translation":[
				-7.940933880509066e-23,
				0.19257839024066925,
				-2.7939677238464355e-09
			]
		},
		{
			"name":"hand.L",
			"rotation":[
				-0.08082634955644608,
				0.017293347045779228,
				-0.047892022877931595,
				0.9954267740249634
			],
			"scale":[
				1,
				1,
				0.9999999403953552
			],
			"translation":[
				2.3562461137771606e-07,
				0.27204692363739014,
				0
			]
		},
		{
			"children":[
				4
			],
			"name":"forearm.L",
			"rotation":[
				0.13674934208393097,
				-0.08808278292417526,
				0.023063745349645615,
				0.9864122271537781
			],
			"scale":[
				1,
				0.9999999403953552,
				1
			],
			"translation":[
				-6.449408829212189e-08,
				0.3132500648498535,
				-7.450580596923828e-09
			]
		},
		{
			"children":[
				5
			],
			"name":"upper_arm.L",
			"rotation":[
				0.15399150550365448,
				0.7236435413360596,
				-0.17365455627441406,
				0.6499775648117065
			],
			"scale":[
				1.0000001192092896,
				1,
				1
			],
			"translation":[
				0.007791535928845406,
				0.20079095661640167,
				-0.020384985953569412
			]
		},
		{
			"children":[
				6
			],
			"name":"shoulder.L",
			"rotation":[
				-0.6051545739173889,
				-0.3458624482154846,
				-0.35613444447517395,
				0.6223627328872681
			],
			"scale":[
				1,
				1.0000001192092896,
				1
			],
			"translation":[
				0.018300000578165054,
				0.13722100853919983,
				0.0782509371638298
			]
		},
		{
			"name":"hand.R",
			"rotation":[
				-0.08082634955644608,
				-0.017293347045779228,
				0.047892022877931595,
				0.9954267740249634
			],
			"scale":[
				1,
				1,
				0.9999999403953552
			],
			"translation":[
				-2.3562461137771606e-07,
				0.27204692363739014,
				0
			]
		},
		{
			"children":[
				8
			],
			"name":"forearm.R",
			"rotation":[
				0.13674934208393097,
				0.08808278292417526,
				-0.023063745349645615,
				0.9864122271537781
			],
			"scale":[
				1,
				0.9999999403953552,
				1
			],
			"translation":[
				6.449408829212189e-08,
				0.3132500648498535,
				-7.450580596923828e-09
			]
		},
		{
			"children":[
				9
			],
			"name":"upper_arm.R",
			"rotation":[
				0.15399150550365448,
				-0.7236435413360596,
				0.17365455627441406,
				0.6499775648117065
			],
			"scale":[
				1.0000001192092896,
				1,
				1
			],
			"translation":[
				-0.007791535928845406,
				0.20079095661640167,
				-0.020384985953569412
			]
		},
		{
			"children":[
				10
			],
			"name":"shoulder.R",
			"rotation":[
				-0.6051545739173889,
				0.3458624482154846,
				0.35613444447517395,
				0.6223627328872681
			],
			"scale":[
				1,
				1.0000001192092896,
				1
			],
			"translation":[
				-0.018300000578165054,
				0.13722100853919983,
				0.0782509371638298
			]
		},
		{
			"name":"breast.L",
			"rotation":[
				3.1346878870408545e-08,
				-0.6969361901283264,
				-0.7171331644058228,
				3.0464047284795015e-08
			],
			"scale":[
				1,
				0.9999997019767761,
				1
			],
			"translation":[
				0.11839999258518219,
				-0.004881145432591438,
				-0.04275684803724289
			]
		},
		{
			"name":"breast.R",
			"rotation":[
				3.1346878870408545e-08,
				-0.6969361901283264,
				-0.7171331644058228,
				3.0464047284795015e-08
			],
			"scale":[
				1,
				0.9999997019767761,
				1
			],
			"translation":[
				-0.11839999258518219,
				-0.004881145432591438,
				-0.04275685176253319
			]
		},
		{
			"children":[
				3,
				7,
				11,
				12,
				13
			],
			"name":"spine.003",
			"rotation":[
				0.0016271492931991816,
				-1.192091474422341e-07,
				1.9397129735754248e-10,
				0.9999986886978149
			],
			"translation":[
				-4.440892098500626e-16,
				0.17288745939731598,
				1.862645149230957e-09
			]
		},
		{
			"children":[
				14
			],
			"name":"spine.002",
			"rotation":[
				-0.07746415585279465,
				5.1224177724767516e-15,
				-1.8468892193368447e-08,
				0.9969951510429382
			],
			"scale":[
				1,
				0.9999998807907104,
				0.9999999403953552
			],
			"translation":[
				2.220446049250313e-15,
				0.1366366744041443,
				-9.313225746154785e-09
			]
		},
		{
			"children":[
				15
			],
			"name":"spine.001",
			"rotation":[
				-0.06447640061378479,
				2.831409050632356e-14,
				-1.5372366490851164e-08,
				0.9979192614555359
			],
			"scale":[
				1,
				0.9999998807907104,
				0.9999998807907104
			],
			"translation":[
				-2.6645352591003757e-15,
				0.15221935510635376,
				1.257285475730896e-08
			]
		},
		{
			"name":"pelvis.L",
			"rotation":[
				-0.1524551957845688,
				-0.7933307886123657,
				-0.28550392389297485,
				0.5156270861625671
			],
			"scale":[
				0.9999999403953552,
				1.0000001192092896,
				0.9999999403953552
			],
			"translation":[
				4.440892098500626e-15,
				-4.516914486885071e-08,
				-2.2351741790771484e-08
			]
		},
		{
			"name":"pelvis.R",
			"rotation":[
				-0.15245525538921356,
				0.7933306694030762,
				0.28550389409065247,
				0.5156272053718567
			],
			"scale":[
				0.9999998807907104,
				1.0000001192092896,
				0.9999999403953552
			],
			"translation":[
				4.440892098500626e-15,
				-4.516914486885071e-08,
				-2.2351741790771484e-08
			]
		},
		{
			"name":"toe.L",
			"rotation":[
				4.491433003295242e-08,
				0.9612486958503723,
				-0.2756826877593994,
				5.309312882673112e-07
			],
			"scale":[
				1,
				1.000000238418579,
				1.000000238418579
			],
			"translation":[
				-2.2871384786071758e-09,
				0.12924544513225555,
				-1.61680446808532e-09
			]
		},
		{
			"name":"heel.02.L",
			"rotation":[
				0.6717768907546997,
				0.6717766523361206,
				-0.220716655254364,
				0.22071711719036102
			],
			"scale":[
				1,
				0.9999998807907104,
				1
			],
			"translation":[
				-0.03800006955862045,
				0.01997041329741478,
				0.08799035847187042
			]
		},
		{
			"children":[
				19,
				20
			],
			"name":"foot.L",
			"rotation":[
				-0.53322434425354,
				2.0169566994354682e-07,
				-2.5426118099858286e-07,
				0.8459738492965698
			],
			"scale":[
				1,
				1.0000001192092896,
				1
			],
			"translation":[
				7.855771144704704e-09,
				0.4580605924129486,
				4.738582859431517e-09
			]
		},
		{
			"children":[
				21
			],
			"name":"shin.L",
			"rotation":[
				0.15200547873973846,
				2.0196051775389634e-10,
				3.755415178829935e-08,
				0.9883796572685242
			],
			"scale":[
				1,
				0.9999999403953552,
				0.9999999403953552
			],
			"translation":[
				1.1708245040153997e-08,
				0.5370064377784729,
				1.013292560969603e-09
			]
		},
		{
			"children":[
				22
			],
			"name":"thigh.L",
			"rotation":[
				0.9830654263496399,
				1.306147967561344e-09,
				2.341376443837362e-07,
				0.18325486779212952
			],
			"scale":[
				1,
				0.9999998807907104,
				1.0000008344650269
			],
			"translation":[
				0.09799998998641968,
				0.07081833481788635,
				0.025942299515008926
			]
		},
		{
			"name":"toe.R",
			"rotation":[
				4.491432648023874e-08,
				-0.9612486958503723,
				0.2756826877593994,
				5.309312882673112e-07
			],
			"scale":[
				1,
				1.000000238418579,
				1.000000238418579
			],
			"translation":[
				2.2871384786071758e-09,
				0.12924544513225555,
				-1.6168613115041808e-09
			]
		},
		{
			"name":"heel.02.R",
			"rotation":[
				0.6717768907546997,
				-0.6717766523361206,
				0.220716655254364,
				0.22071711719036102
			],
			"scale":[
				1,
				0.9999998807907104,
				1
			],
			"translation":[
				0.03800006955862045,
				0.01997041329741478,
				0.08799035847187042
			]
		},
		{
			"children":[
				24,
				25
			],
			"name":"foot.R",
			"rotation":[
				-0.53322434425354,
				-2.0169571257611096e-07,
				2.5426118099858286e-07,
				0.8459738492965698
			],
			"scale":[
				1,
				1.0000001192092896,
				1
			],
			"translation":[
				-7.855772921061543e-09,
				0.4580605924129486,
				4.738510028801102e-09
			]
		},
		{
			"children":[
				26
			],
			"name":"shin.R",
			"rotation":[
				0.15200547873973846,
				2.0194051986166528e-10,
				-3.492777622682297e-08,
				0.9883796572685242
			],
			"scale":[
				1,
				0.9999999403953552,
				0.9999999403953552
			],
			"translation":[
				-8.875852053336075e-09,
				0.5370064377784729,
				1.0132161776255089e-09
			]
		},
		{
			"children":[
				27
			],
			"name":"thigh.R",
			"rotation":[
				0.9830654263496399,
				-4.238523132471528e-08,
				-2.433803991674921e-10,
				0.18325486779212952
			],
			"scale":[
				1,
				0.9999998807907104,
				1.0000008344650269
			],
			"translation":[
				-0.09800000488758087,
				0.07081833481788635,
				0.025942252948880196
			]
		},
		{
			"children":[
				16,
				17,
				18,
				23,
				28
			],
			"name":"spine",
			"rotation":[
				0.1258196234703064,
				1.1826192292119231e-07,
				1.4998867925442028e-08,
				0.9920531511306763
			],
			"scale":[
				1,
				0.9999999403953552,
				0.9999998807907104
			],
			"translation":[
				0,
				1.0099000930786133,
				-0.05519999563694
			]
		},
		{
			"mesh":0,
			"name":"Male_4",
			"skin":0
		},
		{
			"children":[
				30,
				29
			],
			"name":"metarig",
			"scale":[
				1.2259876728057861,
				1.2259876728057861,
				1.2259876728057861
			],
			"translation":[
				0,
				0.008116587996482849,
				0.029734216630458832
			]
		}
	],
	"cameras":[
		{
			"name":"Camera",
			"perspective":{
				"aspectRatio":1.7777777777777777,
				"yfov":0.39959652046304894,
				"zfar":100,
				"znear":0.10000000149011612
			},
			"type":"perspective"
		}
	],
	"materials":[
		{
			"alphaMode":"BLEND",
			"doubleSided":true,
			"name":"Hazmat",
			"pbrMetallicRoughness":{
				"baseColorTexture":{
					"index":0
				},
				"metallicFactor":0,
				"roughnessFactor":0.4000000059604645
			}
		}
	],
	"meshes":[
		{
			"name":"Cube.008",
			"primitives":[
				{
					"attributes":{
						"POSITION":0,
						"NORMAL":1,
						"TEXCOORD_0":2,
						"JOINTS_0":3,
						"JOINTS_1":4,
						"WEIGHTS_0":5,
						"WEIGHTS_1":6
					},
					"indices":7,
					"material":0
				}
			]
		}
	],
	"textures":[
		{
			"sampler":0,
			"source":0
		}
	],
	"images":[
		{
			"mimeType":"image/png",
			"name":"Hazmet_Tex.png",
			"uri":"../../Models/Player/Hazmat/Hazmet_Tex.png"
		}
	],
	"skins":[
		{
			"inverseBindMatrices":8,
			"joints":[
				29,
				16,
				15,
				14,
				3,
				7,
				6,
				5,
				4,
				11,
				10,
				9,
				8,
				12,
				13,
				17,
				18,
				23,
				22,
				21,
				19,
				20,
				28,
				27,
				26,
				24,
				25
			],
			"name":"metarig"
		}
	],
	"accessors":[
		{
			"bufferView":0,
			"componentType":5126,
			"count":717,
			"max":[
				1.1260559558868408,
				2.423196792602539,
				0.23939894139766693
			],
			"min":[
				-1.1260559558868408,
				-0.00744280032813549,
				-0.18595314025878906
			],
			"type":"VEC3"
		},
		{
			"bufferView":1,
			"componentType":5126,
			"count":717,
			"type":"VEC3"
		},
		{
			"bufferView":2,
			"componentType":5126,
			"count":717,
			"type":"VEC2"
		},
		{
			"bufferView":3,
			"componentType":5121,
			"count":717,
			"type":"VEC4"
		},
		{
			"bufferView":4,
			"componentType":5121,
			"count":717,
			"type":"VEC4"
		},
		{
			"bufferView":5,
			"componentType":5126,
			"count":717,
			"type":"VEC4"
		},
		{
			"bufferView":6,
			"componentType":5126,
			"count":717,
			"type":"VEC4"
		},
		{
			"bufferView":7,
			"componentType":5123,
			"count":2556,
			"type":"SCALAR"
		},
		{
			"bufferView":8,
			"componentType":5126,
			"count":27,
			"type":"MAT4"
		}
	],
	"bufferViews":[
		{
			"buffer":0,
			"byteLength":8604,
			"byteOffset":0,
			"target":34962
		},
		{
			"buffer":0,
			"byteLength":8604,
			"byteOffset":8604,
			"target":34962
		},
		{
			"buffer":0,
			"byteLength":5736,
			"byteOffset":17208,
			"target":34962
		},
		{
			"buffer":0,
			"byteLength":2868,
			"byteOffset":22944,
			"target":34962
		},
		{
			"buffer":0,
			"byteLength":2868,
			"byteOffset":25812,
			"target":34962
		},
		{
			"buffer":0,
			"byteLength":11472,
			"byteOffset":28680,
			"target":34962
		},
		{
			"buffer":0,
			"byteLength":11472,
			"byteOffset":40152,
			"target":34962
		},
		{
			"buffer":0,
			"byteLength":5112,
			"byteOffset":51624,
			"target":34963
		},
		{
			"buffer":0,
			"byteLength":1728,
			"byteOffset":56736
		}
	],
	"samplers":[
		{
			"magFilter":9729,
			"minFilter":9987
		}
	],
	"buffers":[
		{
			"byteLength":58464,
			"uri":"Hazmat_Character-d7799e27e538b1683ecc6985d82c1810.bin"
		}
	]
}
